<?xml version="1.0" encoding="utf-8"?>
<!-- Generator: Adobe Illustrator 24.2.0, SVG Export Plug-In . SVG Version: 6.00 Build 0)  -->
<svg version="1.1" id="Calque_1" xmlns="http://www.w3.org/2000/svg" xmlns:xlink="http://www.w3.org/1999/xlink" x="0px" y="0px"
	 viewBox="0 0 566.9 566.9" style="enable-background:new 0 0 566.9 566.9;" xml:space="preserve">
<style type="text/css">
	.st0{fill:#E3057F;}
</style>
<path class="st0" d="M393.9,324.3c3.2-16.8-10-16.1-10-16.1c-24.6-1.8-24,54.4-24,54.4c3.6-1.1,12.4-7.4,20.3-15.7
	c-7,7.9-15.9,15.2-26.7,19.8c0,0-5.8-61.5,23-67.3c21.4-4.5,25,12.6,25,12.6c-3,7.7-6.8,15-11.4,21.9
	C391.9,330.9,393.2,327.6,393.9,324.3z"/>
<polygon class="st0" points="372,354.6 379.9,308.1 388.2,308.1 384.6,341.9 "/>
<path class="st0" d="M149.6,293.3c0,0,8.6,76.6,95.3,100.9c17.5,4.9,35.7,6.4,53.7,4.4c47.4-5.1,100.3-29.8,120.8-102.6l9.6,3l2-7.1
	c0.2-0.8-0.2-1.6-0.9-1.9c-5.3-2.2-25-10.6-29-14.1c-0.4-0.4-1-0.3-1.4,0l-2.2,2.2l7.8,6.3c0,0-1,68.1-78.2,94.2
	c-42.7,14.5-90.1,8-125.9-19.2c-21.4-16.3-38.6-39.5-44-70.5l12-10.5l-1.7-3.4c-0.3-0.6-1-0.9-1.6-0.6c-0.1,0-0.1,0.1-0.2,0.1
	c-4.1,3.3-18.3,14-29.8,15v7.1c0,0.7,0.6,1.3,1.3,1.3c0.2,0,0.3,0,0.5-0.1L149.6,293.3z"/>
</svg>
