<svg xmlns="http://www.w3.org/2000/svg" viewBox="0 0 566.93 566.93"><defs><style>.a{fill:#e3057f;}</style></defs><path class="a" d="M393.93,324.26c3.18-16.76-10-16.11-10-16.11-24.56-1.82-24,54.37-24,54.37,3.58-1.1,12.44-7.43,20.26-15.67-7,7.85-15.87,15.2-26.71,19.83,0,0-5.83-61.47,23-67.32,21.41-4.5,25,12.62,25,12.62a115.18,115.18,0,0,1-11.38,21.87A32,32,0,0,0,393.93,324.26Z"/><polygon class="a" points="371.98 354.59 379.92 308.14 388.25 308.14 384.56 341.92 371.98 354.59"/><path class="a" d="M149.64,293.27s8.6,76.55,95.26,100.91a142.28,142.28,0,0,0,53.7,4.42C346,393.53,398.89,368.77,419.43,296l9.61,3,2-7.06a1.58,1.58,0,0,0-.91-1.89c-5.27-2.2-25-10.59-29-14.08a1,1,0,0,0-1.39.05l-2.24,2.24,7.81,6.31s-1,68.08-78.16,94.18c-42.7,14.45-90.06,8-125.94-19.23C179.77,343.19,162.57,320,157.16,289l12-10.52-1.72-3.44a1.23,1.23,0,0,0-1.86-.42c-4.12,3.28-18.34,14-29.77,15v7.1a1.31,1.31,0,0,0,1.78,1.22Z"/><path class="a" d="M229.75,228.23a50.53,50.53,0,0,1-12.94,4.67,65.53,65.53,0,0,1-13.74,1.44A39.09,39.09,0,0,1,189.33,232a31.64,31.64,0,0,1-10.87-6.69,30.21,30.21,0,0,1-7.14-10.56,38.64,38.64,0,0,1,0-27.66,30.53,30.53,0,0,1,7.14-10.56,31.55,31.55,0,0,1,10.87-6.69,39.09,39.09,0,0,1,13.74-2.33,50.78,50.78,0,0,1,14.06,1.84,27.57,27.57,0,0,1,11.27,6.33l-9.88,10.78a19.66,19.66,0,0,0-6.47-4.49,23,23,0,0,0-9-1.53,20.78,20.78,0,0,0-8.13,1.53,18.11,18.11,0,0,0-6.24,4.27,18.79,18.79,0,0,0-4,6.51,24.85,24.85,0,0,0,0,16.39,18.81,18.81,0,0,0,4,6.47,18.3,18.3,0,0,0,6.24,4.27,20.78,20.78,0,0,0,8.13,1.53,26.71,26.71,0,0,0,7.9-1,29.78,29.78,0,0,0,5.3-2.11V207.94H204.86V195h24.88v33.22Z"/><path class="a" d="M238.73,210.89a22.82,22.82,0,0,1,1.89-9.43,21.78,21.78,0,0,1,5.17-7.23,22.8,22.8,0,0,1,7.73-4.63,28.55,28.55,0,0,1,19,0,22.75,22.75,0,0,1,7.72,4.63,21.92,21.92,0,0,1,5.17,7.23,24.47,24.47,0,0,1,0,18.86,21.78,21.78,0,0,1-5.17,7.23,22.85,22.85,0,0,1-7.72,4.63,28.55,28.55,0,0,1-19,0,22.89,22.89,0,0,1-7.73-4.63,21.78,21.78,0,0,1-5.17-7.23A22.82,22.82,0,0,1,238.73,210.89Zm13.47,0a11.29,11.29,0,0,0,2.83,8c1.89,2,4.54,3.05,8,3.05s6.06-1,7.95-3.05a12.71,12.71,0,0,0,0-16c-1.89-2-4.54-3.05-7.95-3.05s-6.06,1-8,3.05A11.29,11.29,0,0,0,252.2,210.89Z"/><path class="a" d="M331.68,181.51H313.53v-12.4h50.31v12.4H345.69v51.2h-14Z"/><path class="a" d="M357.64,210.89a22.82,22.82,0,0,1,1.89-9.43,21.78,21.78,0,0,1,5.17-7.23,22.8,22.8,0,0,1,7.73-4.63,28.55,28.55,0,0,1,19,0,22.75,22.75,0,0,1,7.72,4.63,21.92,21.92,0,0,1,5.17,7.23,24.47,24.47,0,0,1,0,18.86,21.78,21.78,0,0,1-5.17,7.23,22.85,22.85,0,0,1-7.72,4.63,28.55,28.55,0,0,1-19,0,22.89,22.89,0,0,1-7.73-4.63,21.78,21.78,0,0,1-5.17-7.23A22.82,22.82,0,0,1,357.64,210.89Zm13.48,0a11.29,11.29,0,0,0,2.83,8c1.89,2,4.54,3.05,7.95,3.05s6.06-1,8-3.05a12.71,12.71,0,0,0,0-16c-1.89-2-4.54-3.05-8-3.05s-6.06,1-7.95,3.05A11.25,11.25,0,0,0,371.12,210.89Z"/><path class="a" d="M217.45,250.43h41.88V263H231v11.49h26.73V287H231v12.54H260.9v12.54H217.45Z"/><path class="a" d="M296.69,306.77h-.17a12.32,12.32,0,0,1-5.79,4.88,20.2,20.2,0,0,1-13.32.65,14.36,14.36,0,0,1-4.83-2.48,12,12,0,0,1-3.31-4.09,12.54,12.54,0,0,1-1.22-5.66,13,13,0,0,1,1.35-6.18,12.08,12.08,0,0,1,3.66-4.18,18.2,18.2,0,0,1,5.27-2.57,38.28,38.28,0,0,1,6.14-1.35,59.25,59.25,0,0,1,6.36-.52q3.18-.09,5.88-.09a6.82,6.82,0,0,0-2.48-5.53,9,9,0,0,0-5.88-2,12.78,12.78,0,0,0-5.88,1.35,16.12,16.12,0,0,0-4.75,3.7l-7-7.14a24.17,24.17,0,0,1,8.53-5.1,30.56,30.56,0,0,1,10.1-1.7,26.38,26.38,0,0,1,9.45,1.44,13.79,13.79,0,0,1,5.92,4.22,16.3,16.3,0,0,1,3.09,6.84,44.9,44.9,0,0,1,.87,9.36v21.51h-12Zm-3.22-13.24c-1,0-2.22,0-3.7.13a18.8,18.8,0,0,0-4.27.74,9.55,9.55,0,0,0-3.48,1.83,4.21,4.21,0,0,0-1.44,3.4,3.73,3.73,0,0,0,2,3.48,8.34,8.34,0,0,0,4.18,1.13,13,13,0,0,0,3.7-.52,11.07,11.07,0,0,0,3.18-1.48,6.89,6.89,0,0,0,3.05-5.92v-2.79Z"/><path class="a" d="M345.71,280.21H334.22v14.11a28,28,0,0,0,.17,3.18,6.52,6.52,0,0,0,.78,2.48,4,4,0,0,0,1.87,1.61,8.24,8.24,0,0,0,3.35.57,21.59,21.59,0,0,0,2.74-.22,4.64,4.64,0,0,0,2.57-1v10.88a19.64,19.64,0,0,1-4.53,1,42.89,42.89,0,0,1-4.61.26,24.86,24.86,0,0,1-6.1-.7,13.81,13.81,0,0,1-4.88-2.22,10.56,10.56,0,0,1-3.27-4,13.61,13.61,0,0,1-1.18-5.92V280.21h-8.36V269.76h8.36V257.22h13.06v12.54h11.49v10.45Z"/></svg>