<svg xmlns="http://www.w3.org/2000/svg" viewBox="0 0 566.93 566.93"><defs><style>.a{fill:#e5f4f8;}.b{fill:#263239;}.c{fill:#455a64;}.d{fill:#fbfbfb;}.e{fill:#ebebeb;}.f{fill:#e3057f;}.g{fill:#e9505b;}.h{opacity:0.5;}.i{fill:#e0e0e0;}.j{opacity:0.4;}.k{fill:#fff;}.l{opacity:0.2;}.m{fill:#b78876;}.n{fill:#ab6550;}.o{opacity:0.3;}</style></defs><path class="a" d="M235.76,376.36s-40-66.34-54.32-74.48a29.33,29.33,0,0,1-5.91-4.56c-14.2-13.88-43.23-52.88-10.6-90.56,13.64-13.3,39.91-14.3,59.53-7,12.3,1.33,55.42-14.3,60.19-14.3s23.61-2.66,37.58,14.63,22.61,25.27,72.49,10.31c20.95-5.65,71.5,11,54.54,87.14-8.65,32.24-55.54,48.54-55.54,48.54s-45.89,17-54.53,30.26S296.62,402,288.81,401.3,252.39,388,235.76,376.36Z"/><path class="b" d="M494.14,406.8c0,.09-94.49.16-211,.16s-211.06-.07-211.06-.16,94.48-.17,211.06-.17S494.14,406.71,494.14,406.8Z"/><path class="c" d="M251.07,406.8l-83.75-.39a18.25,18.25,0,0,1-18.16-18.32l.89-210A18.24,18.24,0,0,1,168.38,160l83.74.39a18.24,18.24,0,0,1,18.16,18.31l-.89,210A18.25,18.25,0,0,1,251.07,406.8Z"/><path class="d" d="M252,167.6l-16.23-.07a4,4,0,0,0-4,4.1l0,3a4,4,0,0,1-4,4.1l-31.65-.15a4,4,0,0,1-3.92-4.14v-2.94a4,4,0,0,0-3.93-4.14l-5.71,0-14.21-.06a12.77,12.77,0,0,0-12.83,12.72l-.87,204.93a12.78,12.78,0,0,0,12.72,12.83l83.58.39a12.78,12.78,0,0,0,12.83-12.73l.87-204.93A12.78,12.78,0,0,0,252,167.6Z"/><polygon class="e" points="155.48 204.53 169.18 204.53 181.41 216.76 168.7 229.46 155.63 216.39 155.48 204.53"/><polygon class="e" points="184.2 211.39 177.33 204.53 192.78 204.53 184.2 211.39"/><path class="e" d="M190.2,217l12-12h42s6.44,28.73-18.87,47.18Z"/><polygon class="e" points="185.05 220.83 172.19 233.7 207.79 269.31 220.66 256.01 185.05 220.83"/><polygon class="e" points="155.33 240.99 163.39 232.63 155.48 224.72 155.33 240.99"/><polygon class="e" points="168.22 237.56 155.83 249.95 155.83 267.16 181.41 293.33 203.07 273.17 168.22 237.56"/><path class="e" d="M230.16,255.76s26.53-19.46,18-50.79h16.51l-.2,88.43Z"/><polygon class="e" points="225.19 260.86 212.35 274.26 251.7 313.6 263.73 300.85 225.19 260.86"/><polygon class="e" points="206.99 277.93 186.83 297.95 227.16 338 247.29 318.54 206.99 277.93"/><polygon class="e" points="196.42 378.25 227.25 346.29 256.58 376.19 196.42 378.25"/><path class="e" d="M232.06,342.16l32.11-31.8c0,1.41-.28,66-.28,66Z"/><polygon class="e" points="204.57 324.3 222.78 342.51 186.83 379.62 170.21 359.69 204.57 324.3"/><path class="e" d="M155.36,362.28c1.72-.18,45.77-41.42,45.77-41.42l-45.77-47.43Z"/><polyline class="e" points="154.72 371.68 165.33 362.28 180.01 379.62 154.72 379.62 154.72 372.99"/><path class="b" d="M168.45,192a26.05,26.05,0,0,1-3.15-2.73h0v-.24h0l0,0,0,0,.07-.07.16-.14.3-.29.58-.52,1-.89a4.92,4.92,0,0,1,1-.75,4.44,4.44,0,0,1-.81.92l-.95.94-.56.54-.3.28-.15.15-.08.07,0,0,0,0h0v-.23h0A27.05,27.05,0,0,1,168.45,192Z"/><path class="b" d="M255.53,187.24a.68.68,0,1,1-.68-.69A.68.68,0,0,1,255.53,187.24Z"/><path class="b" d="M255.33,189.1a.68.68,0,0,1,0,1,.67.67,0,0,1-1,0,.68.68,0,0,1,1-1Z"/><path class="b" d="M255.53,191.94a.68.68,0,0,1-1.36,0,.68.68,0,1,1,1.36,0Z"/><rect class="b" x="196.53" y="190.03" width="29.47" height="2.46"/><path class="f" d="M222.8,234.14c0-11.48-12.06-18.76-24.36-13a13.94,13.94,0,0,0-6.47,6.2c-3.1,6-1.73,12.84,1.08,18.52l9.57,24.26a4.12,4.12,0,0,0,7.68,0l9.39-24.39C222.94,238.28,222.8,234.14,222.8,234.14Zm-11.55,10c-8.27,4.81-16.65-4.08-12.12-12.85a6.87,6.87,0,0,1,2.63-2.79c8.27-4.8,16.65,4.08,12.11,12.85A6.85,6.85,0,0,1,211.25,244.13Z"/><rect class="g" x="123.85" y="321.76" width="349.57" height="51.29"/><g class="h"><rect x="123.85" y="321.76" width="349.57" height="51.29"/></g><circle class="b" cx="170.82" cy="372.71" r="33.71" transform="matrix(1, -0.07, 0.07, 1, -24.63, 12.31)"/><path class="b" d="M137.12,372.14v.09a33.71,33.71,0,0,0,67.41,1s0-.06,0-.09Z"/><path class="d" d="M147.16,372.37a23.66,23.66,0,1,0,24-23.32A23.65,23.65,0,0,0,147.16,372.37Z"/><path class="i" d="M171.16,349.05a23.66,23.66,0,0,0-24,23.32l47.32.68A23.66,23.66,0,0,0,171.16,349.05Z"/><path class="b" d="M156.41,372.5A14.42,14.42,0,1,0,171,358.3,14.42,14.42,0,0,0,156.41,372.5Z"/><circle class="b" cx="428.58" cy="372.71" r="33.71" transform="translate(-20.84 25.41) rotate(-3.32)"/><path class="b" d="M394.88,372.14s0,.06,0,.09a33.71,33.71,0,0,0,67.41,1v-.09Z"/><path class="d" d="M404.92,372.37a23.66,23.66,0,1,0,24-23.32A23.65,23.65,0,0,0,404.92,372.37Z"/><path class="i" d="M428.92,349.05a23.65,23.65,0,0,0-24,23.32l47.32.68A23.66,23.66,0,0,0,428.92,349.05Z"/><path class="b" d="M414.16,372.5a14.42,14.42,0,1,0,14.63-14.2A14.43,14.43,0,0,0,414.16,372.5Z"/><path class="f" d="M215,292.91s-49.64,3.66-68,7.78c-13,2.91-38,7.93-37.66,23.66l2,11.27S102,339.86,102,350.67s-2.26,27.57,19.39,28.24c3.56.11,10.34,0,10.34,0s-4.15-46.1,38.2-47.45c43.09-1.37,40.23,47,40.23,47H390s-7.38-47.16,39-47.22,39.32,47.53,39.32,47.53,17.07,1.48,25-12.87,5.87-24.54,5.87-24.54l-.26-9.07a5.87,5.87,0,0,0-5.64-5.69h0s3.09-22.83-1.66-26.78-30.82-27.78-30.82-27.78l1.24-.78a2.92,2.92,0,0,0-.61-5.24c-9.89-3.4-29.46-10.13-34.06-11.74a7.85,7.85,0,0,0-2.14-.45c-2.74-.21-10.52-.71-24.79-.86-17.38-.18-86.4,0-86.4,0s-23.75,2-37,7.78C263.17,266.9,215,292.91,215,292.91Z"/><g class="j"><path d="M114.6,349.42c-1.8-.37-4.56-.4-5.93.82a5.69,5.69,0,0,0-1.45,3.72,15.89,15.89,0,0,0,.13,5.59A6.83,6.83,0,0,0,110.5,364a4.41,4.41,0,0,0,5.18-.62c1.17-1.25,1.3-3.13,1.27-4.84a39.46,39.46,0,0,0-.29-6.88,3.5,3.5,0,0,0-.62-1.39,1.85,1.85,0,0,0-1.44-.86"/></g><path class="d" d="M111.29,335.62c5.27,0,10.38-.29,15.64-.64a2.47,2.47,0,0,0,1.6-.48,2.61,2.61,0,0,0,.55-1.92c0-2.82-.11-6-2.26-7.87a8.42,8.42,0,0,0-4.82-1.64,31.12,31.12,0,0,0-12.69,1.28Z"/><path class="k" d="M220.7,377.05s0-.15,0-.45l-.08-1.32c-.07-1.18-.16-2.89-.28-5.09s-.27-4.91-.59-8a61.85,61.85,0,0,0-1.86-10.48,47.13,47.13,0,0,0-5.07-11.82A37.09,37.09,0,0,0,203,328.93c-8.5-6.05-20-9.47-32-9.62s-23.49,3.66-31.77,10a46.42,46.42,0,0,0-10.32,10.52,49.85,49.85,0,0,0-6,11.36,46.65,46.65,0,0,0-2.55,10.32,43.17,43.17,0,0,0-.31,8,40,40,0,0,0,.62,5c.1.57.18,1,.23,1.31a3.64,3.64,0,0,1,.07.44s0-.14-.1-.44l-.27-1.29a40.13,40.13,0,0,1-.68-5.05,43.11,43.11,0,0,1,.26-8.06,46.35,46.35,0,0,1,2.51-10.37,49.85,49.85,0,0,1,6-11.43A46.69,46.69,0,0,1,139,329.08c8.33-6.4,19.85-10.24,32-10.1s23.62,3.59,32.18,9.7a37.35,37.35,0,0,1,9.86,11,47.75,47.75,0,0,1,5.07,11.9,62.12,62.12,0,0,1,1.81,10.52c.3,3.13.43,5.84.54,8s.16,3.92.21,5.09c0,.58,0,1,.06,1.33S220.7,377.05,220.7,377.05Z"/><path class="b" d="M222.61,377.83s0-.13,0-.38l0-1.11c0-1-.07-2.46-.13-4.36-.11-3.82-.27-9.41-.47-16.52s-.43-15.75-.71-25.64q-.09-3.72-.2-7.66a25.71,25.71,0,0,1,.17-4c.1-.68.19-1.35.29-2s.28-1.35.41-2a41.7,41.7,0,0,1,2.81-8.08,40.59,40.59,0,0,1,4.61-7.66l0,0h0l31.14-19.62,8.41-5.3a67,67,0,0,1,8.9-5,92.75,92.75,0,0,1,9.67-3.86c1.66-.58,3.35-1.06,5.05-1.56s3.42-.92,5.17-1.27a116.73,116.73,0,0,1,20.07-2.53,190.5,190.5,0,0,1,19.43.06h.18l0,.18c-3,13.34-5.79,25.91-8.37,37.44v0l0,0a41.47,41.47,0,0,0-3.75,8,22.16,22.16,0,0,0-1.27,8.33c.21,2.76.29,5.47.36,8.09s.1,5.18.15,7.65c.15,9.89.18,18.52.21,25.63s0,12.69,0,16.51c0,1.9,0,3.36,0,4.35,0,.49,0,.86,0,1.12s0,.38,0,.38,0-.13,0-.38,0-.63,0-1.12c0-1,0-2.45,0-4.35,0-3.82,0-9.4-.1-16.51s-.11-15.73-.27-25.62c-.06-2.47-.11-5-.17-7.65s-.15-5.32-.37-8.08a22.16,22.16,0,0,1,1.27-8.43,41.27,41.27,0,0,1,3.77-8.11v.05c2.56-11.53,5.36-24.11,8.33-37.44l.15.19a189.9,189.9,0,0,0-19.4-.06,118,118,0,0,0-20,2.53c-1.75.35-3.45.84-5.16,1.27s-3.38,1-5,1.55a89.22,89.22,0,0,0-9.64,3.85,65.72,65.72,0,0,0-8.86,4.94L260.69,279l-31.17,19.6,0,0a40.19,40.19,0,0,0-4.58,7.6,41.13,41.13,0,0,0-2.8,8c-1.42,5.39-.7,10.72-.69,15.66.24,9.89.46,18.52.63,25.64s.3,12.7.4,16.52c0,1.9.07,3.36.09,4.36,0,.48,0,.86,0,1.11S222.61,377.83,222.61,377.83Z"/><path class="b" d="M337,260.35a1.64,1.64,0,0,1,.29,0l.87,0,3.34-.08,12.41-.25,41.82-.71h.08l.05.06,5.86,7.17L418.46,287l1.9,2.34a12.9,12.9,0,0,1,2.82,8,13,13,0,0,1-1,5.16c-.66,1.54-1.3,3-1.9,4.43l-5.79,13.38c-.68,1.57-1.21,2.79-1.58,3.63l-.42.95c-.1.21-.16.31-.16.31l.13-.33.39-.95c.35-.85.87-2.08,1.53-3.66,1.34-3.18,3.29-7.76,5.68-13.42,1.09-2.85,3-5.84,2.87-9.5a13,13,0,0,0-1.24-5.36,13.41,13.41,0,0,0-1.54-2.45l-1.91-2.33-16.75-20.5-5.86-7.18.13.06-41.83.61-12.41.14-3.34,0H337Z"/><path class="b" d="M315.88,316s.18,0,.5-.07a3.56,3.56,0,0,0,1.33-.53,3.41,3.41,0,0,0,1.35-1.75,3.88,3.88,0,0,0,.17-1.39,3.49,3.49,0,0,0-.39-1.5,3.36,3.36,0,0,0-2.91-1.76H302a3.31,3.31,0,0,0-3.27,2.93,3.71,3.71,0,0,0,.4,2.22,3.35,3.35,0,0,0,1.62,1.43,4.9,4.9,0,0,0,2.09.26h2.06l3.71,0,5.36,0,1.45,0,.51,0a2.48,2.48,0,0,1-.51,0l-1.45,0-5.36.05-3.71,0h-2.06c-.36,0-.7,0-1.09,0a3.62,3.62,0,0,1-2.89-1.81,4,4,0,0,1-.45-2.42,3.64,3.64,0,0,1,1.15-2.27,3.69,3.69,0,0,1,2.44-1l9.74,0h4.25a3.59,3.59,0,0,1,3.5,3.54,4,4,0,0,1-.21,1.45,3.47,3.47,0,0,1-2.84,2.29A2.22,2.22,0,0,1,315.88,316Z"/><path class="b" d="M409.09,316s.17,0,.5-.07a3.59,3.59,0,0,0,1.32-.53,3.36,3.36,0,0,0,1.35-1.75,3.88,3.88,0,0,0,.17-1.39,3.49,3.49,0,0,0-.39-1.5,3.33,3.33,0,0,0-2.9-1.76h-14a3.27,3.27,0,0,0-2.22.87,3.36,3.36,0,0,0-1.06,2.06,3.72,3.72,0,0,0,.41,2.22,3.29,3.29,0,0,0,1.61,1.43,4.92,4.92,0,0,0,2.09.26h2.07l3.7,0,5.36,0,1.46,0,.51,0a2.6,2.6,0,0,1-.51,0l-1.46,0-5.36.05-3.7,0H396c-.35,0-.7,0-1.08,0a3.78,3.78,0,0,1-1.13-.26,3.67,3.67,0,0,1-1.76-1.55,4,4,0,0,1-.45-2.42,3.59,3.59,0,0,1,1.15-2.27,3.65,3.65,0,0,1,2.44-1l9.73,0h4.25a3.56,3.56,0,0,1,3.5,3.54,4,4,0,0,1-.21,1.45,3.42,3.42,0,0,1-1.45,1.8,3.37,3.37,0,0,1-1.38.49A2.18,2.18,0,0,1,409.09,316Z"/><path class="d" d="M490.82,300.75H472.17a6.88,6.88,0,0,0-6.09,3.68h0a6.9,6.9,0,0,0-.21,6L473.19,327l18.67-.18S495.83,305.78,490.82,300.75Z"/><path class="b" d="M231.81,298.4,328,296.63l62.63-1.15,20.65-11.92a3.21,3.21,0,0,0,.95-4.72L399.41,262a7.16,7.16,0,0,0-5.63-2.82l-70-.57s-26.38-1.53-47.16,10.1C254.7,280.91,231.81,298.4,231.81,298.4Z"/><path class="c" d="M275.91,260.31s4.82,2.2,1.68,4.23-51.89,32.78-51.89,32.78l-11.21-5.07C234.35,281.18,254.4,270.44,275.91,260.31Z"/><path class="b" d="M227.28,298.09l-.3.07-.89.2-3.42.7c-3,.59-7.28,1.43-12.63,2.34-10.69,1.84-25.53,4-42,5.41-4.12.36-8.15.66-12.05.91s-7.64.49-11.21.82A96.26,96.26,0,0,0,126,311.75a52.82,52.82,0,0,0-11.8,4.92c-1.34.71-2.3,1.4-3,1.82l-.77.48-.27.16a2.38,2.38,0,0,1,.25-.18l.75-.52a32.51,32.51,0,0,1,3-1.87,51.56,51.56,0,0,1,11.8-5,95.62,95.62,0,0,1,18.75-3.28c3.57-.34,7.33-.58,11.22-.84s7.92-.56,12-.91c16.48-1.43,31.32-3.54,42-5.32,5.35-.88,9.66-1.68,12.65-2.23l3.43-.65.89-.16A1.77,1.77,0,0,1,227.28,298.09Z"/><path class="b" d="M498.27,341.18c0,.09-6.41.16-14.32.16s-14.33-.07-14.33-.16S476,341,484,341,498.27,341.09,498.27,341.18Z"/><path class="b" d="M380.94,357.55c0,.09-36.21.16-80.86.16s-80.86-.07-80.86-.16,36.2-.17,80.86-.17S380.94,357.45,380.94,357.55Z"/><path class="b" d="M127.44,341.72c0,.09-5.12.16-11.43.16s-11.44-.07-11.44-.16,5.12-.16,11.44-.16S127.44,341.63,127.44,341.72Z"/><path class="c" d="M460.31,271.41s-4.29,4.81-2.6,8.34,19.14,15.89,19.14,15.89L489.52,298Z"/><polygon class="c" points="339.85 262.8 337 293.57 387.98 292.12 408.53 280.17 395.23 262.8 339.85 262.8"/><path class="c" d="M243.88,295.15s30.76-22.22,42.9-26.63c11.71-4.26,17.81-5.33,28.81-5.64,10.52-.3,16.93,0,16.93,0l-8.13,31.28Z"/><path class="f" d="M239.38,295.25h0a5.38,5.38,0,0,1,2.75-4.7l7.07-4a13.45,13.45,0,0,1,6.59-1.73h0a13.48,13.48,0,0,1,4.2.67,7.66,7.66,0,0,1,5.15,7h0a7.78,7.78,0,0,1-7.78,8.08H244.77A5.39,5.39,0,0,1,239.38,295.25Z"/><path class="f" d="M239.38,295.25s0,.24.08.68a5.51,5.51,0,0,0,.62,1.85,5.61,5.61,0,0,0,2.17,2.13,5.18,5.18,0,0,0,1.82.57,19.13,19.13,0,0,0,2.17,0l10.78,0a8.43,8.43,0,0,0,3-.49,7.69,7.69,0,0,0,2.66-1.7,7.48,7.48,0,0,0,1.8-2.73,7.8,7.8,0,0,0,.47-3.33,7.63,7.63,0,0,0-3.18-5.64,8.17,8.17,0,0,0-2.92-1.23,12.83,12.83,0,0,0-3.05-.36,13.22,13.22,0,0,0-5.53,1.18c-.81.36-1.56.82-2.29,1.22l-2.11,1.17-3.62,2a5.38,5.38,0,0,0-2.16,2.13,5.64,5.64,0,0,0-.63,1.85c-.07.44-.06.68-.08.68a3.62,3.62,0,0,1,0-.69,5.37,5.37,0,0,1,.58-1.9,5.46,5.46,0,0,1,2.19-2.23l3.6-2.05,2.09-1.19c.73-.4,1.47-.87,2.31-1.25a13.72,13.72,0,0,1,5.64-1.24,14,14,0,0,1,3.12.36,8.49,8.49,0,0,1,3,1.27,8,8,0,0,1,3.32,5.88,8.18,8.18,0,0,1-.49,3.48,8,8,0,0,1-1.88,2.84,7.9,7.9,0,0,1-2.78,1.76,8.45,8.45,0,0,1-3.11.5l-10.78,0c-.77,0-1.5,0-2.2-.07a5.42,5.42,0,0,1-4.07-2.85,5.37,5.37,0,0,1-.57-1.9A4.49,4.49,0,0,1,239.38,295.25Z"/><path class="k" d="M476.36,377.33s0-.14,0-.43.05-.73.09-1.28.1-1.26.14-2.08.06-1.78.1-2.84,0-2.26,0-3.56-.09-2.72-.27-4.23a54.87,54.87,0,0,0-1.82-10.13,46.15,46.15,0,0,0-2-5.64,37.33,37.33,0,0,0-3-5.73,39.17,39.17,0,0,0-9.85-10.28,46.38,46.38,0,0,0-14.13-7,58.61,58.61,0,0,0-16.79-2.24A55.1,55.1,0,0,0,412,324.37a46.39,46.39,0,0,0-7.46,3.08,42.67,42.67,0,0,0-6.47,4.23,53.69,53.69,0,0,0-10,10.23,40.45,40.45,0,0,0-3.32,5.57,54.72,54.72,0,0,0-2.29,5.54,66.19,66.19,0,0,0-3.64,17.68c-.1,2.13-.09,3.79,0,4.92,0,.55.05,1,.07,1.28s0,.43,0,.43,0-.14,0-.43-.06-.72-.11-1.28a47.61,47.61,0,0,1,0-4.93,65.25,65.25,0,0,1,3.55-17.75,57.42,57.42,0,0,1,2.28-5.57,41,41,0,0,1,3.33-5.62,54.52,54.52,0,0,1,10-10.31,42.86,42.86,0,0,1,6.52-4.27,46.29,46.29,0,0,1,7.51-3.11,55.38,55.38,0,0,1,16.86-2.46,58.93,58.93,0,0,1,16.88,2.26,46.57,46.57,0,0,1,14.22,7,43.24,43.24,0,0,1,5.57,4.88,34.44,34.44,0,0,1,4.33,5.49,37.78,37.78,0,0,1,3,5.78,44.94,44.94,0,0,1,2,5.68,53.52,53.52,0,0,1,1.78,10.18c.17,1.51.17,2.93.24,4.23s0,2.5,0,3.57-.09,2-.12,2.84-.13,1.52-.17,2.08-.09,1-.12,1.28S476.36,377.33,476.36,377.33Z"/><path class="k" d="M323,298.4s-.05,0-.14,0l-.43,0-1.64,0-6.05.1c-5.1.1-12.15.29-19.93.5s-14.84.36-20,.4c-2.55,0-4.61,0-6,0l-1.64,0-.43,0h-.15s.05,0,.15,0l.43,0,1.64,0,6-.1c5.1-.1,12.15-.29,19.94-.5s14.84-.36,19.94-.4c2.55,0,4.62,0,6.05,0l1.64,0,.43,0Z"/><path class="k" d="M314.69,307.88a95.3,95.3,0,0,1-11,0,89.7,89.7,0,0,1,11,0Z"/><path class="k" d="M316.72,274.16c0,.09-6.82,2.94-15.31,6.37S286,286.68,286,286.6s6.82-2.94,15.31-6.37S316.68,274.08,316.72,274.16Z"/><path class="k" d="M302.83,276.31c0,.09-6.49,3-14.57,6.42s-14.67,6.2-14.7,6.12,6.48-3,14.57-6.42S302.79,276.23,302.83,276.31Z"/><path class="k" d="M390.89,273c0,.08-6.82,2.94-15.31,6.37s-15.39,6.15-15.42,6.07,6.81-2.94,15.3-6.37S390.85,272.89,390.89,273Z"/><path class="k" d="M377,275.12c0,.09-6.49,3-14.57,6.42s-14.67,6.2-14.7,6.12,6.49-3,14.57-6.42S377,275,377,275.12Z"/><path class="k" d="M392.23,298.4c0,.09-13.63.24-30.44.34s-30.44.11-30.44,0,13.63-.24,30.44-.34S392.23,298.31,392.23,298.4Z"/><path class="k" d="M407.32,307.35c0,.09-3.82.2-8.54.25s-8.54,0-8.54-.09,3.82-.2,8.54-.24S407.32,307.26,407.32,307.35Z"/><path class="k" d="M146.38,302.69a1.47,1.47,0,0,1-.37.07l-1.07.14c-.46.06-1,.13-1.68.24s-1.41.19-2.23.36c-1.64.29-3.59.72-5.72,1.29s-4.44,1.33-6.81,2.25-4.57,2-6.53,3-3.67,2-5.07,3c-.71.43-1.33.87-1.88,1.24s-1,.7-1.39,1l-.88.62-.32.2s.09-.1.28-.25l.84-.68c.37-.29.82-.64,1.36-1s1.16-.84,1.86-1.29c1.39-.94,3.11-2,5.06-3a62.2,62.2,0,0,1,13.4-5.26c2.15-.55,4.11-1,5.76-1.22.83-.15,1.58-.23,2.24-.32s1.23-.14,1.7-.17l1.07-.08A1.56,1.56,0,0,1,146.38,302.69Z"/><path class="k" d="M258.89,287.83a7,7,0,0,0-.61-.59,4.18,4.18,0,0,0-2.08-.84,9.19,9.19,0,0,0-3.36.36,26.52,26.52,0,0,0-4,1.35,26.07,26.07,0,0,0-6.46,4c-1.49,1.26-2.29,2.18-2.33,2.14a3.76,3.76,0,0,1,.53-.67,22.9,22.9,0,0,1,1.65-1.65,24.24,24.24,0,0,1,10.5-5.48,9.12,9.12,0,0,1,3.47-.3,4.15,4.15,0,0,1,2.13,1,3,3,0,0,1,.42.48C258.87,287.75,258.9,287.82,258.89,287.83Z"/><path class="b" d="M461.74,271.19a10,10,0,0,1-2.68.27,16.19,16.19,0,0,1-3.15-.39,28.3,28.3,0,0,1-4-1.23c-1.45-.55-3-1.25-4.68-2l-2.62-1.06c-.9-.36-1.85-.67-2.81-1A109.79,109.79,0,0,0,429,262.3a147.73,147.73,0,0,0-24-3c-1.54-.08-2.94-.08-4.18-.11h-3.15l-2,0h-.7l.18,0,.52,0,2-.1,3.17-.06c1.23,0,2.63,0,4.18.07A139.79,139.79,0,0,1,429,262a106.85,106.85,0,0,1,12.87,3.54c1,.35,1.92.67,2.82,1l2.62,1.08c1.67.72,3.21,1.43,4.66,2a28.94,28.94,0,0,0,4,1.28,17.21,17.21,0,0,0,3.11.44,13.41,13.41,0,0,0,2-.08l.51-.06Z"/><path class="f" d="M158.6,272.06c-2.51-13.79-4.21-15.91-5.63-20.65s-3.69-7.83-6.51-8.91c-1.9-.73-11.38-4.15-14.68-3a41,41,0,0,0-9.16,4.6,12.31,12.31,0,0,0-4.78,6.11l-5.07,14.22,8.88,8.85,4.44-9.46,4.83,11.32-.72,11.43L157.89,294C160.41,290,160,279.88,158.6,272.06Z"/><g class="l"><path d="M151.39,257c-1.22,7.18-1.41,8.17-2.64,15.34-.41,2.47-1.64,6.31-3.4,8.09-1.3,1.32-2.57,2.59-4.37,3a10.52,10.52,0,0,1-5.81-.25c-1.58-.7-2.92-3.76-2.27-5.36,2.35.5,3.07,1.29,5.1,0a17.8,17.8,0,0,0,5.23-5.46c4-7.82,5.15-8.1,8.16-15.37"/></g><path class="b" d="M131.36,270.92a17,17,0,0,1-1.22-1.9l-2.85-4.66-2.92-4.6a15.77,15.77,0,0,1-1.18-1.94,2.13,2.13,0,0,1,.4.47c.23.31.57.76,1,1.34.8,1.14,1.88,2.75,3,4.56s2.1,3.48,2.77,4.71c.34.61.6,1.11.78,1.46A2.36,2.36,0,0,1,131.36,270.92Z"/><path class="b" d="M150.68,283.79a2.65,2.65,0,0,1-.65.25c-.22.07-.48.15-.79.22s-.66.16-1.06.22a17,17,0,0,1-2.8.25,20.1,20.1,0,0,1-3.43-.29,19.44,19.44,0,0,1-3.32-.94,16.63,16.63,0,0,1-2.53-1.23,9.7,9.7,0,0,1-.91-.58,5.18,5.18,0,0,1-.66-.48,2.85,2.85,0,0,1-.52-.46c0-.05.81.56,2.2,1.32a18.56,18.56,0,0,0,2.53,1.15,22.37,22.37,0,0,0,3.27.9,21.65,21.65,0,0,0,3.37.31,20.1,20.1,0,0,0,2.77-.18C149.72,284,150.66,283.73,150.68,283.79Z"/><path class="m" d="M139.57,262.32c0,.24-3,6.17-3,6.17l-14-7.4-1.43-6a3.8,3.8,0,0,0-1.63-2.29,3.75,3.75,0,0,0-2.92-.5l-4.14,1.7a1.1,1.1,0,0,0-.68.8c-.06.3,0,.6.55.56,1-.08,3.17-.31,3.17-.31l-1,3.45a3.62,3.62,0,0,0,.28,2.7l.62,1.19,1.37,2.21,0,0s13.64,14,21.31,14.93c4.6.55,9.82-12.36,9.82-12.36Z"/><path class="n" d="M115.31,255.23s.1-.14.34-.3a1.88,1.88,0,0,1,1.06-.33,1.13,1.13,0,0,1,.94.61c.13.28,0,.47,0,.46s0-.18-.15-.39a1.11,1.11,0,0,0-.83-.47,2,2,0,0,0-1,.25C115.48,255.18,115.33,255.26,115.31,255.23Z"/><path class="n" d="M117.07,257.38s-.09-.11-.22-.28a1.55,1.55,0,0,0-.65-.48,1.6,1.6,0,0,0-.81-.09c-.21,0-.34.08-.35.05s.1-.12.32-.19a1.34,1.34,0,0,1,.92,0,1.38,1.38,0,0,1,.69.59C117.09,257.23,117.1,257.38,117.07,257.38Z"/><path class="f" d="M142.48,243.62l-3.8,18,10.07,6.05,3.88-11.07S151,243.18,142.48,243.62Z"/><path class="e" d="M147.91,243.94s-.08.06-.25.16-.43.24-.77.4c-.67.35-1.65.82-2.88,1.37A42,42,0,0,1,134,249a24.92,24.92,0,0,1-10.47-.36,18.28,18.28,0,0,1-3-1.07c-.34-.15-.59-.31-.77-.4a1.18,1.18,0,0,1-.26-.16,10.25,10.25,0,0,1,1.08.44,21.07,21.07,0,0,0,3,1,25.86,25.86,0,0,0,10.36.25,46.21,46.21,0,0,0,10-3c1.24-.52,2.23-1,2.92-1.27A7.77,7.77,0,0,1,147.91,243.94Z"/><path class="e" d="M150.56,245.93s-.09.08-.28.2l-.83.54c-.36.23-.82.51-1.36.79s-1.15.64-1.86.94l-1.1.51c-.38.17-.8.32-1.22.49-.84.35-1.77.63-2.74.95a41.82,41.82,0,0,1-6.5,1.35,40.82,40.82,0,0,1-6.64.2c-1-.08-2-.14-2.88-.28-.45-.07-.89-.11-1.3-.19l-1.19-.24c-.77-.13-1.44-.33-2-.48s-1.1-.31-1.5-.45l-.94-.33a1.34,1.34,0,0,1-.32-.13,1.26,1.26,0,0,1,.34.07l1,.26c.41.13.92.27,1.52.4s1.26.32,2,.44l1.19.21c.41.07.84.11,1.29.17.89.13,1.86.18,2.87.25a39.23,39.23,0,0,0,13-1.54c1-.31,1.89-.58,2.72-.92.42-.16.84-.3,1.22-.46l1.11-.49c.71-.29,1.32-.62,1.86-.89s1-.52,1.38-.74l.87-.48A1.41,1.41,0,0,1,150.56,245.93Z"/><path class="b" d="M148.75,267.69a5.84,5.84,0,0,1-.81-.42L145.72,266l-7.58-4.37-.1-.05,0-.11.86-4.28c.45-2.24.89-4.37,1.29-6.32.21-1,.37-1.9.57-2.76a9.89,9.89,0,0,1,.8-2.34,4.75,4.75,0,0,1,2.61-2.39,3.19,3.19,0,0,1,1-.16,1.1,1.1,0,0,1,.34,0,4.29,4.29,0,0,0-1.26.24,4.68,4.68,0,0,0-2.44,2.37,10,10,0,0,0-.75,2.3l-.54,2.75c-.39,2-.81,4.09-1.26,6.33-.31,1.49-.6,2.93-.87,4.28l-.08-.17,7.52,4.47,2.17,1.32A5.23,5.23,0,0,1,148.75,267.69Z"/><path class="b" d="M151.84,256.09a6.8,6.8,0,0,1-.05,1.68,26.53,26.53,0,0,1-.72,4,27.07,27.07,0,0,1-1.34,3.83,6.34,6.34,0,0,1-.78,1.48,9.92,9.92,0,0,1,.57-1.57,40.12,40.12,0,0,0,1.23-3.83,39.06,39.06,0,0,0,.81-3.93A11.5,11.5,0,0,1,151.84,256.09Z"/><path class="c" d="M97.18,356.28l-.11,9.62s-9.82,3.12-10,4.89l18.64.89.79-15Z"/><path class="i" d="M102.87,365.37a.76.76,0,0,1,.49.89.75.75,0,0,1-.89.49.81.81,0,0,1-.51-.95.77.77,0,0,1,1-.41"/><path class="i" d="M105.7,371.68l0-1.52-17.88-.28s-.85.32-.78.91Z"/><path class="b" d="M96.77,365.79c0,.09.45.15.89.47s.65.71.74.67,0-.56-.56-.93S96.75,365.71,96.77,365.79Z"/><path class="b" d="M94.78,366.51c0,.08.36.26.65.66s.36.81.45.81.17-.51-.2-1S94.78,366.42,94.78,366.51Z"/><path class="b" d="M93.55,368.79c.09,0,.23-.42,0-.93s-.62-.73-.66-.66.2.36.37.78S93.46,368.78,93.55,368.79Z"/><path class="b" d="M97,363.6c0,.09.46,0,1,0s.91.24,1,.16-.32-.41-.93-.48S97,363.53,97,363.6Z"/><g class="o"><polygon points="97.16 358.19 97.14 359.9 106.3 360.25 106.39 358.71 97.16 358.19"/></g><path class="b" d="M97.1,361.66a1.7,1.7,0,0,0,.93,0,4.35,4.35,0,0,0,1-.25,4.55,4.55,0,0,0,.55-.26,1,1,0,0,0,.29-.21.39.39,0,0,0,.07-.48.51.51,0,0,0-.39-.23,1.23,1.23,0,0,0-.35,0,2.71,2.71,0,0,0-.59.18,3,3,0,0,0-.89.52c-.45.38-.62.71-.59.73s.27-.24.72-.55a3.63,3.63,0,0,1,.86-.43,3.05,3.05,0,0,1,.54-.14c.2,0,.37,0,.42.05s0,0,0,.11a1,1,0,0,1-.21.15c-.17.1-.34.18-.51.26a5.42,5.42,0,0,1-.92.3A5.72,5.72,0,0,0,97.1,361.66Z"/><path class="b" d="M97.21,361.8a1.54,1.54,0,0,0,.29-.89,3.16,3.16,0,0,0-.08-1,3.38,3.38,0,0,0-.21-.58.77.77,0,0,0-.58-.5.43.43,0,0,0-.4.24,1.9,1.9,0,0,0-.11.34,2.26,2.26,0,0,0,0,.63,2.18,2.18,0,0,0,.35,1c.34.5.72.63.73.6s-.28-.24-.53-.71a2.16,2.16,0,0,1-.26-.89,2,2,0,0,1,0-.54c0-.2.12-.36.2-.33s.24.16.31.32a2.57,2.57,0,0,1,.21.52,3.31,3.31,0,0,1,.13.94C97.27,361.44,97.16,361.78,97.21,361.8Z"/><path class="b" d="M135.17,286.66S106.06,274.44,97,273.92c-5.65-.33-9.93,3.3-9.16,9.15.39,2.93,8.43,37.19,8.43,37.19l12.27-5.61L102.69,291l23.92,11.63Z"/><path class="c" d="M99,285c-.09.08.88,1.33,1.89,3s1.7,3.07,1.81,3a9.17,9.17,0,0,0-1.45-3.24A9.28,9.28,0,0,0,99,285Z"/><path class="c" d="M96.63,286.33a34,34,0,0,0,3.13,2.31,34.38,34.38,0,0,0,3.14,2.3A12.06,12.06,0,0,0,100,288.3,12.3,12.3,0,0,0,96.63,286.33Z"/><path class="b" d="M157.89,294s-3.67,4.72-7.16,6c-4.38,1.62-36.83,16.93-36.83,16.93s-5.88,43.72-5.42,41.89L94.9,358.5l1.48-40.26c.18-5.16,4.31-11.08,8.75-13.71l30-17.87Z"/><path class="c" d="M96.12,325.61a2.05,2.05,0,0,0,.06-.56c0-.4,0-.93.08-1.58a52.4,52.4,0,0,1,.54-5.79,19.93,19.93,0,0,1,2.93-8,15.26,15.26,0,0,1,3.49-3.61,41.11,41.11,0,0,1,4.61-2.91c6.53-3.75,12.17-7.56,16.34-10.18,2.08-1.32,3.77-2.37,4.94-3.09l1.35-.84a2.63,2.63,0,0,0,.46-.31,2.8,2.8,0,0,0-.5.24c-.32.17-.79.42-1.39.76-1.2.68-2.92,1.69-5,3-4.21,2.55-9.88,6.32-16.39,10.06a38.71,38.71,0,0,0-4.65,2.95,15.49,15.49,0,0,0-3.57,3.72,20.06,20.06,0,0,0-2.9,8.15,43.88,43.88,0,0,0-.4,5.84c0,.65,0,1.18,0,1.58A4.19,4.19,0,0,0,96.12,325.61Z"/><path class="c" d="M145.9,298.61a11,11,0,0,0-.83-1.12,8.14,8.14,0,0,1-1.27-6.29,9.71,9.71,0,0,0,.33-1.35,2.89,2.89,0,0,0-.62,1.27,7.24,7.24,0,0,0,1.32,6.55A3,3,0,0,0,145.9,298.61Z"/><path class="c" d="M99.89,358.5a.93.93,0,0,0,0-.22l.08-.66c.06-.61.15-1.47.27-2.55.22-2.24.53-5.43.92-9.36q.29-3,.61-6.48c.23-2.32.46-4.81.64-7.43s.46-5.36.93-8.17a33.91,33.91,0,0,1,2.5-8.4,27.92,27.92,0,0,1,4.93-7.23,44.51,44.51,0,0,1,6.14-5.42,124.5,124.5,0,0,1,11.82-7.38c3.45-2,6.19-3.67,8-4.94.92-.63,1.61-1.14,2.08-1.5l.52-.41a1.09,1.09,0,0,0,.17-.15s-.07,0-.2.12l-.54.37c-.48.34-1.19.83-2.12,1.43-1.85,1.23-4.61,2.87-8.08,4.82a120.86,120.86,0,0,0-11.9,7.32,44.64,44.64,0,0,0-6.22,5.45,28.44,28.44,0,0,0-5,7.34,33.75,33.75,0,0,0-2.52,8.51c-.48,2.83-.72,5.59-.91,8.21s-.39,5.11-.6,7.44-.39,4.49-.56,6.47c-.33,3.93-.6,7.13-.79,9.38-.08,1.08-.14,1.94-.19,2.55,0,.27,0,.49,0,.67Z"/><path class="b" d="M131.87,217.31a5.3,5.3,0,0,0-6.07-3.26,6.62,6.62,0,0,1-1.69.36,12.77,12.77,0,0,1-2.06-.54,3.08,3.08,0,0,0-3.47,2.25,4.19,4.19,0,0,0-3.46.69,2.7,2.7,0,0,0-.81,3.26c.24.46.65.83.87,1.3a18.69,18.69,0,0,1,.46,2.52,3.4,3.4,0,0,0,2.94,2.11,9.92,9.92,0,0,0,3.76-.54"/><path class="m" d="M126,242.23c-.16-1.22-.26-2.08-.26-2.08s-4.06,0-5.7-5.05a55.37,55.37,0,0,1-1.69-10.21,5.52,5.52,0,0,1,5.2-6l10.79-.57.23,1.68,2.85,20.73a5.78,5.78,0,0,1-5,6.5h0A5.77,5.77,0,0,1,126,242.23Z"/><path class="b" d="M119.9,227.87a.67.67,0,0,0,.74.57.64.64,0,0,0,.59-.71.66.66,0,0,0-.74-.56A.63.63,0,0,0,119.9,227.87Z"/><path class="b" d="M119.63,226.94c.1.07.54-.38,1.25-.49s1.29.16,1.36.06-.08-.19-.33-.32a1.94,1.94,0,0,0-1.1-.15,1.74,1.74,0,0,0-1,.49C119.64,226.74,119.59,226.91,119.63,226.94Z"/><path class="b" d="M126.67,226.72a.67.67,0,0,0,.74.57.64.64,0,0,0,.59-.71.66.66,0,0,0-.74-.56A.63.63,0,0,0,126.67,226.72Z"/><path class="b" d="M126.65,226c.1.07.54-.38,1.25-.49s1.29.16,1.36.06-.08-.19-.33-.32a1.94,1.94,0,0,0-1.1-.15,1.74,1.74,0,0,0-1,.49C126.66,225.76,126.61,225.93,126.65,226Z"/><path class="b" d="M124.91,231.65a4.78,4.78,0,0,0-1.19,0c-.19,0-.36,0-.41-.11a.92.92,0,0,1,0-.56c.1-.47.21-1,.32-1.47a23.58,23.58,0,0,0,.63-3.82,26,26,0,0,0-.94,3.76c-.1.51-.2,1-.29,1.47a1,1,0,0,0,0,.73.45.45,0,0,0,.34.22,1.11,1.11,0,0,0,.32,0A4.67,4.67,0,0,0,124.91,231.65Z"/><path class="n" d="M125.76,240.15a13.2,13.2,0,0,0,6.61-2.94s-1.11,3.81-6.35,4.15Z"/><path class="b" d="M127.08,231.81c-.11,0,0,.78-.57,1.44s-1.41.7-1.4.81.21.12.56.07a2,2,0,0,0,1.18-.63,1.66,1.66,0,0,0,.42-1.2C127.25,232,127.13,231.8,127.08,231.81Z"/><path class="b" d="M126,223.2c.1.18.79,0,1.64-.06s1.57.09,1.65-.1-.11-.26-.41-.4a2.86,2.86,0,0,0-1.27-.23,2.81,2.81,0,0,0-1.24.35C126.11,222.93,126,223.11,126,223.2Z"/><path class="b" d="M119.57,224.84c.15.14.61-.11,1.2-.21s1.11-.06,1.2-.25-.07-.24-.31-.36a1.67,1.67,0,0,0-1-.11,1.71,1.71,0,0,0-.91.48C119.54,224.59,119.5,224.77,119.57,224.84Z"/><path class="b" d="M117.84,222.63A7.42,7.42,0,0,0,124,221.4c2.15-1.43,4.76-2.33,5.41-2s1.07,2.74,3.43,3.14c0,0,.42,4.54,2.2,4.15,1.27-.28.52-5.28,0-8.13a2.47,2.47,0,0,0-2.35-2l-3.32-.13-4.15,1.16-4.45,1.21-3.38,1.4Z"/><path class="m" d="M134.61,224.91c.07,0,2.82-1.5,3.33,1.5a2.3,2.3,0,0,1-2.63,2.82C135.29,229.14,134.61,224.91,134.61,224.91Z"/><path class="n" d="M136,227.93s.06,0,.16.06a.58.58,0,0,0,.39-.06,1.31,1.31,0,0,0,.4-1.27,1.83,1.83,0,0,0-.27-.72.64.64,0,0,0-.46-.34.27.27,0,0,0-.29.2.49.49,0,0,0,0,.16s-.07,0-.07-.17a.3.3,0,0,1,.09-.21.41.41,0,0,1,.27-.13.76.76,0,0,1,.63.38,1.69,1.69,0,0,1,.32.8,1.39,1.39,0,0,1-.54,1.43.55.55,0,0,1-.49,0C136.05,228,136,227.94,136,227.93Z"/><path class="c" d="M119.28,215s.11.15.32.4a2.72,2.72,0,0,0,1.13.73,3.91,3.91,0,0,0,2,.09,20.15,20.15,0,0,0,2.42-.77,6.45,6.45,0,0,1,2.57-.46,2.78,2.78,0,0,1,2,.88,2,2,0,0,1,.6,1.31.88.88,0,0,1-.09.52s0-.19,0-.51a2.1,2.1,0,0,0-.64-1.16,2.62,2.62,0,0,0-1.8-.74,6.59,6.59,0,0,0-2.45.47,16.49,16.49,0,0,1-2.48.75,3.94,3.94,0,0,1-2.14-.16,2.58,2.58,0,0,1-1.15-.87A1,1,0,0,1,119.28,215Z"/><path class="c" d="M129.43,217.89s-.15-.16-.46-.37a2.82,2.82,0,0,0-1.52-.45,4.86,4.86,0,0,0-2.29.56,24.15,24.15,0,0,1-2.73,1.28,6.82,6.82,0,0,1-5.39-.59,6,6,0,0,1-1.32-1c-.27-.29-.4-.47-.38-.48a10,10,0,0,0,1.81,1.29,6.87,6.87,0,0,0,5.18.49,27.06,27.06,0,0,0,2.7-1.25,5,5,0,0,1,2.44-.51,2.74,2.74,0,0,1,1.57.57A1.25,1.25,0,0,1,129.43,217.89Z"/><path class="m" d="M120.1,269.09l-14.63-12.47-4.82,1.09s5.08,10.57,8.76,14.45a8.65,8.65,0,0,0,9.63,2.76C125,272.82,120.1,269.09,120.1,269.09Z"/><path class="c" d="M104.37,242.89H98.15a1.59,1.59,0,0,0-1.45,2L103,257.05a1.42,1.42,0,0,0,1.26.77l7.58,0a1.07,1.07,0,0,0,.82-1.6l-6-11.93A2.48,2.48,0,0,0,104.37,242.89Z"/><path class="b" d="M104,243.62H97.73a1,1,0,0,0-.93,1.52l6.1,11.91a1.42,1.42,0,0,0,1.26.77h7.5a.61.61,0,0,0,.54-.89l-6-11.92A2.47,2.47,0,0,0,104,243.62Z"/><path class="m" d="M103.42,248.61l-3.79,1.51-.81,3,1.83,4.54,6.68,1-2-2,.26-1.74s1.86-.59,1.91-.87-.23-1.24-.52-1.29a13.76,13.76,0,0,0-2.24.68s2.31-1.83,2.25-2.13-.31-1-.78-1.13-4.2,1.68-4.2,1.68l-.6,1.38-.53-2.21S104.24,250.12,103.42,248.61Z"/><path class="n" d="M103.89,255.76s-.09-.13-.12-.38a2,2,0,0,1,.11-.95,2,2,0,0,1,.53-.8c.19-.16.33-.22.35-.2a3.89,3.89,0,0,0-.7,1.07A4.51,4.51,0,0,0,103.89,255.76Z"/><path class="n" d="M102.1,255.1s.11-.37.15-1a3.74,3.74,0,0,1,.19-1.1,1.77,1.77,0,0,1,.34-.59,1.89,1.89,0,0,1,.62-.38c.91-.33,1.72-.6,2.32-.79a4.72,4.72,0,0,1,1-.27,5.38,5.38,0,0,1-.94.4l-2.28.84a1.5,1.5,0,0,0-.56.34,1.82,1.82,0,0,0-.32.51,5.06,5.06,0,0,0-.22,1.05A2.11,2.11,0,0,1,102.1,255.1Z"/><path class="n" d="M101.23,254.42c-.06,0,0-.35,0-.75s.16-.72.22-.71,0,.34,0,.74A1.58,1.58,0,0,1,101.23,254.42Z"/><path class="d" d="M101.13,245.92a.79.79,0,1,0,.79-.79A.79.79,0,0,0,101.13,245.92Z"/><path class="f" d="M79.34,366a7.68,7.68,0,0,1,4.59,3.89,13.6,13.6,0,0,1,1.4,6c.13,4-1.53,8.27-3.47,11.75-3.72-2.4-5.22-7.32-5.82-9.86-.94-4-.22-11.86,3.3-11.75"/><path class="f" d="M86.64,393.55a6.56,6.56,0,0,1,1.2-6.47,8.64,8.64,0,0,1,6.06-2.91,3.65,3.65,0,0,1,3,.84,2.81,2.81,0,0,1,.45,2.81,5.55,5.55,0,0,1-1.78,2.35c-2.6,2.21-5.52,3.88-8.9,3.38"/><path class="b" d="M84.16,406.19a3.44,3.44,0,0,1,0-.82c0-.58,0-1.33.08-2.24a23.1,23.1,0,0,1,1.23-7.28,14,14,0,0,1,4.23-6,9.52,9.52,0,0,1,1.9-1.2,5.18,5.18,0,0,1,.57-.23c.13-.05.2-.07.2-.06A15,15,0,0,0,89.82,390a14.72,14.72,0,0,0-4.08,6,24.89,24.89,0,0,0-1.3,7.19c-.06.95-.12,1.71-.17,2.24A5.68,5.68,0,0,1,84.16,406.19Z"/><path class="b" d="M79.31,372a1.34,1.34,0,0,1,.09.34c.06.26.12.59.21,1,.17.88.41,2.14.69,3.7.56,3.13,1.27,7.47,2,12.27s1.19,9.16,1.52,12.32c.17,1.58.29,2.86.36,3.75,0,.42.06.76.08,1a2.45,2.45,0,0,1,0,.36,1.29,1.29,0,0,1-.07-.35c0-.27-.08-.6-.13-1-.11-.92-.27-2.18-.45-3.73-.38-3.16-.93-7.51-1.61-12.31s-1.35-9.14-1.86-12.27c-.25-1.54-.45-2.8-.6-3.72-.06-.41-.12-.75-.15-1A1.33,1.33,0,0,1,79.31,372Z"/><path class="f" d="M81.27,396.77a15.3,15.3,0,0,0-9.9-9.91c-1.18-.37-2.67-.51-3.46.45s-.37,2.4.24,3.48a13.1,13.1,0,0,0,13.09,6.31"/><path class="b" d="M72.45,390.5a4.29,4.29,0,0,1,.74.21,7.53,7.53,0,0,1,.86.3,10.81,10.81,0,0,1,1.1.49,12.89,12.89,0,0,1,1.28.7c.45.26.91.59,1.39.93a17.61,17.61,0,0,1,2.77,2.66,16.89,16.89,0,0,1,2,3.25,13.64,13.64,0,0,1,.62,1.56,11.83,11.83,0,0,1,.41,1.4c.12.43.16.84.23,1.18a7.16,7.16,0,0,1,.1.91,3.74,3.74,0,0,1,0,.77c-.07,0-.11-1.1-.56-2.81a14.06,14.06,0,0,0-.43-1.37c-.17-.49-.4-1-.64-1.52a17.09,17.09,0,0,0-2-3.18,17.5,17.5,0,0,0-2.7-2.63c-.47-.35-.91-.68-1.36-1s-.86-.51-1.24-.72C73.49,390.87,72.43,390.56,72.45,390.5Z"/></svg>