<svg xmlns="http://www.w3.org/2000/svg" viewBox="0 0 566.93 566.93"><defs><style>.a{fill:#e5f1f6;}.b{fill:#e3057f;}.c{fill:#71154c;}.d{fill:#44646e;}.e{fill:#fbeeed;}.f{fill:#c7c6b7;}.g{fill:#fff;}.h{fill:#e8c6c2;}.i{fill:#7fa2a5;}.j{fill:#608b8f;}</style></defs><path class="a" d="M350.37,473.06s46.21,4.95,37.41-63.82C385,373.21,446.09,344.88,456,335s56.47-76.39,36.31-136c-18.94-56-46.76-76.34-107.82-69.18-42.36,6.05-50.06,23.1-95.17,6.05-30.78-16.7-98.18-60.6-132.74,9-4.92,9.92-6.68,21.27-4.06,32,6.6,27.11,30.73,47.44,31.18,56.84.55,11.55-28.61,18.74-44,26.7-12.38,6.39-41.1,25.76-15.65,85.22,13.24,30.93,35,57.46,62.22,77.28C233.81,457.66,284.3,479.31,350.37,473.06Z"/><rect class="b" x="151.57" y="174.08" width="304.57" height="39.96"/><rect class="b" x="148.72" y="258.11" width="309.5" height="166.7"/><rect class="b" x="149.95" y="174.38" width="307.54" height="8.52"/><polygon class="c" points="456.14 182.9 151.57 182.9 151.57 178.37 456.14 179.93 456.14 182.9"/><rect class="d" x="172.32" y="270.96" width="75.23" height="153.85"/><rect class="e" x="181.27" y="286.15" width="57.33" height="64.08"/><rect class="e" x="180.62" y="357.75" width="58.63" height="55.26"/><rect class="f" x="233.31" y="344.52" width="11.89" height="23.35"/><rect class="g" x="260.79" y="273.96" width="180.56" height="120.89"/><rect class="e" x="358.17" y="276.03" width="74.61" height="110.78"/><rect class="h" x="358.17" y="271.75" width="74.61" height="59.67"/><rect class="e" x="271.16" y="276.03" width="77.21" height="110.78"/><rect class="h" x="271.16" y="271.75" width="77.21" height="59.67"/><rect class="h" x="295.89" y="375.3" width="26.56" height="4.24"/><rect class="h" x="299.67" y="377.42" width="2.56" height="9.39"/><rect class="h" x="315.84" y="377.42" width="2.56" height="9.39"/><polygon class="h" points="327.81 386.81 325.43 386.81 328.3 374.6 330.67 375.2 327.81 386.81"/><polygon class="h" points="291.78 386.81 294.18 386.81 291.24 374.28 288.87 374.88 291.78 386.81"/><rect class="h" x="383.3" y="374.87" width="25.64" height="4.4"/><rect class="h" x="386.95" y="377.07" width="2.47" height="9.7"/><rect class="h" x="402.56" y="377.07" width="2.47" height="9.7"/><polygon class="h" points="412.17 386.77 409.77 386.77 412.7 374.28 415.07 374.88 412.17 386.77"/><polygon class="h" points="378.83 386.81 381.13 386.81 378.26 374.6 375.89 375.2 378.83 386.81"/><path class="i" d="M146,210.21a3.6,3.6,0,0,0-3.54,2.94c-1.9,10.06-8,42.65-8.24,45.5-.26,3.36-4.12,20.15,10.48,21.26h.24c5.92-.08,13.07-6.48,13.07-6.48s2.38-1.67,2.8,2.3a1.7,1.7,0,0,0,.56,1.06c2.94,2.61,11.35,6.21,18.63-2.07,1.8-2.25,3.6,1.78,4,2.86a1.38,1.38,0,0,0,.32.5c1.44,1.5,9.75,8.9,24-2.48a2.08,2.08,0,0,0,.21-.21c2-2.31,2.74.72,2.94,2a1.63,1.63,0,0,0,.46.9c1.83,1.84,9.71,8.75,17.2.11,2.87-3.5,3.95-1.12,4.28,0a1.6,1.6,0,0,0,.64.89c2.39,1.63,12.41,7.56,19.65-2.2,3.88-4.93,5.43-1.56,5.43-1.56s7.22,12.31,20,1.32a1.65,1.65,0,0,1,2.46.31c1.81,2.67,5.71,7.63,9.33,6.67,4.91-1.29,13.71-8.56,13.71-8.56s2.07-1,3.36,1.56,7.24,12.28,21.31-.67a1.64,1.64,0,0,1,2-.15c1.66,1.11,4.94,3.24,7.7,4.71,3.88,2.08,12.94,2.6,18.88-5.19,1.82-2.33,3.11,4.15,5.7,4.41s14.06-1.94,17.8-5.88a1.62,1.62,0,0,1,.91-.52c3.44-.54,4.71,7.69,7.15,7.44,2.1-.21,9-1.79,13-5.16a3.18,3.18,0,0,1,4.54.46c2.17,2.75,5.36,6.36,7.27,6.52,3.11.26,12.63-4.66,17.59-8,2.32-1.58,4.06,6.1,7,7.27,4.28,1.71,9.91-1.43,13.37-4.21a4.15,4.15,0,0,1,6.19,1.06.86.86,0,0,0,.1.16,7.61,7.61,0,0,0,6.36,3.81c4.05.09,9.11-1.49,8.64-10.16-.71-13.05-10.73-55-12.44-62a1.33,1.33,0,0,0-1.31-1Z"/><polygon class="j" points="134.19 258.65 470.61 253.43 472.05 261.26 133.54 262.8 134.19 258.65"/></svg>