<svg xmlns="http://www.w3.org/2000/svg" viewBox="0 0 566.93 566.93"><defs><style>.a{fill:#e5f4f8;}.b{fill:#262626;}.c{fill:#fff;}.d{fill:#616363;}.e{fill:#e3057f;}</style></defs><path class="a" d="M213.27,378.63s-50.23-83.2-68.14-93.41a36.36,36.36,0,0,1-7.41-5.73c-17.81-17.4-54.23-66.32-13.3-113.58,17.11-16.68,50.06-17.93,74.67-8.76,15.43,1.67,69.51-17.93,75.49-17.93s29.62-3.34,47.13,18.35,28.37,31.7,90.93,12.93c26.28-7.09,89.68,13.81,68.41,109.3-10.85,40.44-69.66,60.88-69.66,60.88S353.83,362,343,378.63s-53.39,32.12-63.2,31.29S234.12,393.23,213.27,378.63Z"/><path class="b" d="M239.59,180.46H319.7A23.28,23.28,0,0,1,343,203.74V426.47A30.57,30.57,0,0,1,312.41,457H248.25a31.64,31.64,0,0,1-31.64-31.64v-222A23,23,0,0,1,239.59,180.46Z"/><rect class="c" x="226.2" y="215.13" width="107.19" height="201.88"/><circle class="d" cx="251.08" cy="201.78" r="2.64"/><rect class="d" x="267.14" y="201.78" width="25.3" height="1.39"/><circle class="d" cx="279.79" cy="438.97" r="10.01"/><path class="e" d="M299.6,323.38c.57-3-1.78-2.88-1.78-2.88-4.41-.33-4.31,9.74-4.31,9.74a12.22,12.22,0,0,0,3.64-2.8,13.89,13.89,0,0,1-4.79,3.55s-1.05-11,4.12-12.07c3.84-.81,4.49,2.26,4.49,2.26a21,21,0,0,1-2,3.92A5.33,5.33,0,0,0,299.6,323.38Z"/><polygon class="e" points="295.67 328.82 297.09 320.49 298.58 320.49 297.92 326.55 295.67 328.82"/><path class="e" d="M255.8,317.83s1.54,13.72,17.08,18.09a25.64,25.64,0,0,0,9.63.8c8.5-.91,18-5.35,21.66-18.41l1.73.54.36-1.26a.28.28,0,0,0-.16-.34,36.43,36.43,0,0,1-5.21-2.53.18.18,0,0,0-.25,0l-.4.4,1.4,1.13s-.18,12.21-14,16.89A24.36,24.36,0,0,1,265,329.71a20.07,20.07,0,0,1-7.9-12.64l2.16-1.88-.31-.62a.22.22,0,0,0-.33-.07c-.74.58-3.29,2.5-5.34,2.68v1.27a.23.23,0,0,0,.32.22Z"/><path class="e" d="M270.16,306.16a8.84,8.84,0,0,1-2.32.84,11.8,11.8,0,0,1-2.46.26,7,7,0,0,1-2.47-.42,5.71,5.71,0,0,1-2-1.2,5.59,5.59,0,0,1-1.28-1.89,6.92,6.92,0,0,1,0-5,5.54,5.54,0,0,1,1.28-1.9,5.71,5.71,0,0,1,2-1.2,7,7,0,0,1,2.47-.42,9.15,9.15,0,0,1,2.52.33,4.89,4.89,0,0,1,2,1.14l-1.77,1.93a3.6,3.6,0,0,0-1.16-.8,4.19,4.19,0,0,0-1.61-.28,3.76,3.76,0,0,0-1.46.28,3.27,3.27,0,0,0-1.12.76,3.49,3.49,0,0,0-.72,1.17,4.45,4.45,0,0,0,0,2.94,3.44,3.44,0,0,0,.72,1.16,3.29,3.29,0,0,0,1.12.77,3.76,3.76,0,0,0,1.46.27,4.61,4.61,0,0,0,1.42-.19,6.31,6.31,0,0,0,.95-.37v-1.86H265.7V300.2h4.46Z"/><path class="e" d="M271.77,303.05a4.21,4.21,0,0,1,.34-1.69,4,4,0,0,1,2.31-2.12,5.13,5.13,0,0,1,3.4,0,4.15,4.15,0,0,1,1.39.83,3.85,3.85,0,0,1,.92,1.29,4.4,4.4,0,0,1,0,3.39,3.85,3.85,0,0,1-.92,1.29,4.15,4.15,0,0,1-1.39.83,5.13,5.13,0,0,1-3.4,0,4,4,0,0,1-2.31-2.12A4.23,4.23,0,0,1,271.77,303.05Zm2.42,0a2,2,0,0,0,.51,1.44,1.84,1.84,0,0,0,1.42.55,1.88,1.88,0,0,0,1.43-.55,2.27,2.27,0,0,0,0-2.87,1.88,1.88,0,0,0-1.43-.55,1.84,1.84,0,0,0-1.42.55A2,2,0,0,0,274.19,303.05Z"/><path class="e" d="M288.44,297.79h-3.25v-2.23h9v2.23H291V307h-2.51Z"/><path class="e" d="M293.1,303.05a4.21,4.21,0,0,1,.33-1.69,4,4,0,0,1,.93-1.29,4,4,0,0,1,1.39-.83,4.74,4.74,0,0,1,1.7-.29,4.82,4.82,0,0,1,1.7.29,4,4,0,0,1,2.31,2.12,4.52,4.52,0,0,1,0,3.39,4,4,0,0,1-2.31,2.12,4.82,4.82,0,0,1-1.7.29,4.74,4.74,0,0,1-1.7-.29,4,4,0,0,1-1.39-.83,4,4,0,0,1-.93-1.29A4.23,4.23,0,0,1,293.1,303.05Zm2.41,0a2,2,0,0,0,.51,1.44,2.12,2.12,0,0,0,2.85,0,2.27,2.27,0,0,0,0-2.87,2.12,2.12,0,0,0-2.85,0A2,2,0,0,0,295.51,303.05Z"/><path class="e" d="M268,310.15h7.51v2.24h-5.08v2.07h4.8v2.24h-4.8V319h5.36v2.25H268Z"/><path class="e" d="M282.17,320.25h0a2.25,2.25,0,0,1-1,.87,3.56,3.56,0,0,1-1.37.27,3.5,3.5,0,0,1-1-.15,2.57,2.57,0,0,1-.87-.45,2,2,0,0,1-.59-.73,2.18,2.18,0,0,1-.22-1,2.34,2.34,0,0,1,.24-1.11,2.16,2.16,0,0,1,.66-.75,3.17,3.17,0,0,1,.94-.46,8,8,0,0,1,1.1-.25,10.94,10.94,0,0,1,1.14-.09h1.06a1.23,1.23,0,0,0-.45-1,1.63,1.63,0,0,0-1.05-.36,2.33,2.33,0,0,0-1.06.24,3,3,0,0,0-.85.66l-1.25-1.28a4.38,4.38,0,0,1,1.53-.91,5.6,5.6,0,0,1,1.81-.31,4.78,4.78,0,0,1,1.7.26,2.46,2.46,0,0,1,1.06.76,2.78,2.78,0,0,1,.55,1.23,7.57,7.57,0,0,1,.16,1.67v3.86h-2.15Zm-.58-2.38-.67,0a3.18,3.18,0,0,0-.76.13,1.61,1.61,0,0,0-.62.33.73.73,0,0,0-.26.61.66.66,0,0,0,.36.62,1.47,1.47,0,0,0,.75.21,2.39,2.39,0,0,0,.66-.1,2.12,2.12,0,0,0,.57-.26,1.3,1.3,0,0,0,.4-.44,1.28,1.28,0,0,0,.15-.63v-.5Z"/><path class="e" d="M291,315.49H288.9V318a5.17,5.17,0,0,0,0,.57,1,1,0,0,0,.14.44.67.67,0,0,0,.33.29,1.44,1.44,0,0,0,.6.1,3.52,3.52,0,0,0,.5,0,.77.77,0,0,0,.46-.18v1.95a3.16,3.16,0,0,1-.82.19,7.67,7.67,0,0,1-.82.05,4.25,4.25,0,0,1-1.1-.13,2.32,2.32,0,0,1-.87-.4,1.88,1.88,0,0,1-.59-.71,2.41,2.41,0,0,1-.21-1.06v-3.6h-1.5v-1.88h1.5v-2.25h2.35v2.25H291Z"/></svg>