<svg xmlns="http://www.w3.org/2000/svg" viewBox="0 0 566.93 566.93"><defs><style>.a{fill:#e3057f;}.b{fill:#71154c;}.c{fill:#44646e;}.d{fill:#fbeeed;}.e{fill:#c7c6b7;}.f{fill:#fff;}.g{fill:#e8c6c2;}.h{fill:#7fa2a5;}.i{fill:#608b8f;}</style></defs><rect class="a" x="131.47" y="164.48" width="304.57" height="39.96"/><rect class="a" x="128.62" y="248.51" width="309.5" height="166.7"/><rect class="a" x="129.85" y="164.78" width="307.54" height="8.52"/><polygon class="b" points="436.04 173.3 131.47 173.3 131.47 168.77 436.04 170.33 436.04 173.3"/><rect class="c" x="152.22" y="261.36" width="75.23" height="153.85"/><rect class="d" x="161.17" y="276.55" width="57.33" height="64.08"/><rect class="d" x="160.53" y="348.15" width="58.63" height="55.26"/><rect class="e" x="213.21" y="334.92" width="11.89" height="23.35"/><rect class="f" x="240.69" y="264.36" width="180.56" height="120.89"/><rect class="d" x="338.07" y="266.43" width="74.61" height="110.78"/><rect class="g" x="338.07" y="262.15" width="74.61" height="59.67"/><rect class="d" x="251.07" y="266.43" width="77.21" height="110.78"/><rect class="g" x="251.07" y="262.15" width="77.21" height="59.67"/><rect class="g" x="275.8" y="365.7" width="26.56" height="4.24"/><rect class="g" x="279.58" y="367.82" width="2.56" height="9.39"/><rect class="g" x="295.74" y="367.82" width="2.56" height="9.39"/><polygon class="g" points="307.71 377.21 305.33 377.21 308.2 365 310.57 365.6 307.71 377.21"/><polygon class="g" points="271.68 377.21 274.08 377.21 271.14 364.68 268.77 365.28 271.68 377.21"/><rect class="g" x="363.2" y="365.27" width="25.64" height="4.4"/><rect class="g" x="366.85" y="367.47" width="2.47" height="9.7"/><rect class="g" x="382.46" y="367.47" width="2.47" height="9.7"/><polygon class="g" points="392.07 377.17 389.67 377.17 392.6 364.68 394.98 365.28 392.07 377.17"/><polygon class="g" points="358.73 377.21 361.03 377.21 358.17 365 355.79 365.6 358.73 377.21"/><path class="h" d="M125.88,200.61a3.6,3.6,0,0,0-3.55,2.94c-1.9,10.06-8,42.65-8.24,45.5-.26,3.36-4.12,20.15,10.49,21.27h.23c5.92-.08,13.07-6.48,13.07-6.48s2.38-1.67,2.81,2.3a1.64,1.64,0,0,0,.55,1.06c2.94,2.61,11.35,6.21,18.63-2.06,1.8-2.26,3.6,1.77,4,2.85a1.53,1.53,0,0,0,.32.5c1.44,1.5,9.75,8.9,24-2.48l.22-.21c2-2.31,2.73.72,2.93,2a1.69,1.69,0,0,0,.46.9c1.83,1.84,9.71,8.75,17.2.11,2.87-3.5,4-1.12,4.28,0a1.6,1.6,0,0,0,.64.89c2.39,1.63,12.41,7.56,19.65-2.2,3.88-4.93,5.43-1.56,5.43-1.56s7.22,12.31,20,1.32a1.65,1.65,0,0,1,2.46.31c1.81,2.67,5.71,7.63,9.33,6.68,4.92-1.3,13.71-8.57,13.71-8.57s2.07-1,3.36,1.56,7.24,12.28,21.31-.67a1.64,1.64,0,0,1,2-.15c1.67,1.11,4.95,3.24,7.7,4.71,3.88,2.08,12.94,2.6,18.89-5.19,1.81-2.33,3.1,4.15,5.69,4.41s14.06-1.94,17.8-5.88a1.62,1.62,0,0,1,.91-.52c3.45-.54,4.71,7.69,7.15,7.44,2.11-.21,9-1.79,13-5.16a3.18,3.18,0,0,1,4.54.46c2.17,2.75,5.36,6.36,7.28,6.52,3.1.26,12.63-4.66,17.59-8,2.31-1.59,4.05,6.09,7,7.26,4.28,1.71,9.91-1.43,13.37-4.21a4.15,4.15,0,0,1,6.19,1.06l.1.17a7.64,7.64,0,0,0,6.36,3.8c4.05.09,9.11-1.49,8.64-10.16-.71-13.05-10.73-54.94-12.44-62a1.33,1.33,0,0,0-1.31-1Z"/><polygon class="i" points="114.09 249.05 450.51 243.82 451.95 251.66 113.44 253.2 114.09 249.05"/></svg>